<svg width="24px" height="24px" version="1.1" viewBox="140 140 440 290" xmlns="http://www.w3.org/2000/svg">
 <path fill="#6F6869" d="m451.75 108.25h-203.49c-18.559 0.023438-36.352 7.4023-49.473 20.527-13.125 13.121-20.504 30.914-20.527 49.473v203.49c0.023438 18.559 7.4023 36.352 20.527 49.473 13.121 13.125 30.914 20.504 49.473 20.527h203.49c18.559-0.023438 36.352-7.4023 49.473-20.527 13.125-13.121 20.504-30.914 20.527-49.473v-203.49c-0.023438-18.559-7.4023-36.352-20.527-49.473-13.121-13.125-30.914-20.504-49.473-20.527zm-203.49 28h203.49c11.137 0.011719 21.812 4.4414 29.684 12.316 7.875 7.8711 12.305 18.547 12.316 29.684v87.746h-64.102c-4.3594-25.234-20.418-46.906-43.289-58.426-22.867-11.52-49.844-11.52-72.715 0-22.867 11.52-38.926 33.191-43.289 58.426h-64.098v-87.746c0.011719-11.137 4.4414-21.812 12.316-29.684 7.8711-7.875 18.547-12.305 29.684-12.316zm154.8 143.75c0 14.074-5.5898 27.57-15.539 37.52s-23.445 15.539-37.52 15.539-27.57-5.5898-37.52-15.539-15.539-23.445-15.539-37.52 5.5898-27.57 15.539-37.52 23.445-15.539 37.52-15.539c14.066 0.015625 27.555 5.6094 37.5 15.559 9.9492 9.9453 15.543 23.434 15.559 37.5zm48.688 143.75h-203.49c-11.137-0.011719-21.812-4.4414-29.684-12.316-7.875-7.8711-12.305-18.547-12.316-29.684v-87.746h64.102c4.3594 25.234 20.418 46.906 43.289 58.426 22.867 11.52 49.844 11.52 72.715 0 22.867-11.52 38.926-33.191 43.289-58.426h64.102v87.746h-0.003906c-0.011719 11.137-4.4414 21.812-12.312 29.684-7.875 7.875-18.551 12.305-29.688 12.316zm-32.988-250.48c-0.003906-3.7148 1.4688-7.2773 4.0977-9.9023 2.625-2.6289 6.1875-4.1016 9.9023-4.0977h18.457c7.7305 0 14 6.2656 14 14 0 7.7305-6.2695 14-14 14h-18.457c-3.7148 0-7.2773-1.4727-9.9023-4.1016-2.6289-2.625-4.1016-6.1875-4.0977-9.8984z"/>
</svg>
