<svg width="24px" height="24px" version="1.1" viewBox="100 140 500 300" xmlns="http://www.w3.org/2000/svg">
 <path fill="#6F6869" d="m493.73 105.23c-95.48-15.867-192.92-15.867-288.4 0-54.598 11.434-88.664 46.664-88.664 92.633v163.33c0 46.668 34.066 81.434 89.602 93.332l-0.003906 0.003906c47.496 7.9961 95.57 12.055 143.73 12.133 48.312-0.011719 96.539-3.9922 144.2-11.902 54.133-10.266 89.133-46.668 89.133-93.332v-163.33c0-46.434-35-82.836-89.598-92.867zm-67.668 185.27-116.67 70c-1.8242 1.1133-3.9297 1.6797-6.0664 1.6328-2.0234-0.015624-4.0195-0.49609-5.832-1.3984-3.7344-2.2695-5.9648-6.3672-5.832-10.734v-140c0.035156-4.2031 2.2422-8.0859 5.832-10.266 3.7148-1.9922 8.1836-1.9922 11.898 0l116.67 70c3.4258 2.1836 5.5 5.9688 5.5 10.031 0 4.0664-2.0742 7.8477-5.5 10.035z"/>
</svg>
